<svg xmlns="http://www.w3.org/2000/svg" preserveAspectRatio="xMidYMid" width="20.125" height="20" viewBox="0 0 20.125 20"><defs><style>.cls-1{fill:#fff;fill-rule:evenodd}</style></defs><path d="M10.069 20C4.521 20-.004 15.521-.004 9.991S4.504 0 10.069 0s10.056 4.479 10.056 9.991C20.125 15.504 15.617 20 10.069 20zm0-18.605c-4.768 0-8.651 3.859-8.651 8.596 0 4.738 3.883 8.596 8.651 8.596s8.652-3.858 8.652-8.596c0-4.737-3.884-8.596-8.652-8.596zm-.953 13.592a.698.698 0 0 1-.503.207.704.704 0 0 1-.503-1.206l4.074-4.048L8.11 5.891a.704.704 0 0 1 0-.999.716.716 0 0 1 1.006 0l4.577 4.548a.69.69 0 0 1 .208.5.69.69 0 0 1-.208.499l-4.577 4.548z" class="cls-1"/></svg>