<svg version="1" xmlns="http://www.w3.org/2000/svg" width="293.333" height="54.667" viewBox="0 0 220.000000 41.000000"><path d="M39 3.5c0 3.2.2 3.5 3 3.5h3v34h7V7h3c2.8 0 3-.3 3-3.5V0H39v3.5zm23 17V41h7v-7.5c0-6 .3-7.5 1.5-7.5 1 0 2.2 2.5 3.7 7.5l2.2 7.5h3.8c2.1 0 3.8-.4 3.8-.8 0-.5-1.1-4.1-2.5-8.1l-2.4-7.3 2.1-2.8c2.9-4 3.4-11.5 1.1-16-2.4-4.6-5.4-6-13.5-6H62v20.5zm29.6-1.8c-2 10.4-3.9 19.6-4.2 20.5-.5 1.5.1 1.8 3.5 1.8s4.1-.3 4.1-1.9c0-4 1.1-5.1 5-5.1 3.6 0 3.9.2 4.2 3.2.3 3 .6 3.3 4.1 3.6 2 .2 3.7-.1 3.7-.6 0-.8-6.5-33.6-7.5-38C104 .3 103.3 0 99.6 0h-4.3l-3.7 18.7zm19.8-17c.3 1 2.2 10.2 4.2 20.5l3.7 18.8h4.3c3.7 0 4.4-.3 4.9-2.2 1-4.4 7.5-37.2 7.5-38 0-.5-1.7-.8-3.7-.6l-3.7.3-2.3 14.4c-1.2 7.9-2.4 14.5-2.6 14.7-.1.2-1.3-6.4-2.6-14.6l-2.3-15h-4c-3.3 0-3.8.3-3.4 1.7zM140 20.5V41h17v-7h-10V24h10v-7h-10V7h10V0h-17v20.5zm23 0V41h17v-7h-10V0h-7v20.5z"/></svg>