<svg xmlns="http://www.w3.org/2000/svg" preserveAspectRatio="xMidYMid" width="20" height="20" viewBox="0 0 20 20"><defs><style>.cls-1{fill:#485368;fill-rule:evenodd}</style></defs><path d="M19.4 9.683a.6.6 0 0 1-.6-.6 7.83 7.83 0 0 0-2.309-5.574A7.833 7.833 0 0 0 10.916 1.2a.6.6 0 0 1 0-1.2c2.427 0 4.708.945 6.423 2.66A9.024 9.024 0 0 1 20 9.083a.6.6 0 0 1-.6.6zm-8.483-3.598c.812 0 1.545.304 2.119.878.575.575.878 1.308.878 2.12a.6.6 0 0 1-.599.6h-.001a.6.6 0 0 1-.599-.6c0-.487-.182-.927-.527-1.272a1.74 1.74 0 0 0-1.271-.526.6.6 0 0 1 0-1.2zm0-3.042a6 6 0 0 1 4.271 1.769 6 6 0 0 1 1.769 4.271.6.6 0 1 1-1.2 0A4.805 4.805 0 0 0 14.34 5.66a4.812 4.812 0 0 0-3.423-1.418.6.6 0 1 1 0-1.199zM7.252 7.394a1.196 1.196 0 0 1-1.181.304l-.385.384v.001c-.273.273.147 1.973 2.202 4.028 2.056 2.056 3.756 2.475 4.029 2.202h.001l.384-.385a1.197 1.197 0 0 1 .304-1.181l1.019-1.019a1.2 1.2 0 0 1 1.696 0l3.919 3.919a1.2 1.2 0 0 1 0 1.696l-1.019 1.02a1.193 1.193 0 0 1-1.181.304l-.214.213c-.743.743-1.779 1.12-3.022 1.12-.758 0-1.592-.14-2.485-.423-2.221-.704-4.573-2.221-6.624-4.272C2.643 13.254 1.126 10.901.422 8.68c-.718-2.268-.515-4.165.569-5.37.016-.021.342-.35.342-.35a1.204 1.204 0 0 1 .304-1.182L2.656.759c.227-.226.528-.351.848-.351.321 0 .622.125.849.351l3.918 3.919a1.201 1.201 0 0 1 0 1.697L7.252 7.394zm10.121 10.12l1.019-1.019-3.919-3.919-1.019 1.019 3.919 3.919zM1.967 4.022c-.863.863-1.005 2.389-.401 4.296.647 2.041 2.059 4.221 3.977 6.139 1.918 1.917 4.098 3.33 6.139 3.976 1.907.605 3.432.462 4.295-.401l.109-.108-3.041-3.042-.279.279c-.291.291-.674.421-1.115.421-1.311 0-3.137-1.148-4.611-2.622-1.97-1.97-3.358-4.568-2.203-5.725l.001-.001.279-.279-3.041-3.041-.109.108zm1.537-2.414L2.485 2.627l1.96 1.959L6.39 6.531l.014.015h.001l1.018-1.019-3.919-3.919z" class="cls-1"/></svg>