<svg xmlns="http://www.w3.org/2000/svg" xmlns:xlink="http://www.w3.org/1999/xlink" preserveAspectRatio="xMidYMid" width="20.125" height="20" viewBox="0 0 20.125 20">
  <defs>
    <style>
      .cls-1 {
        fill: #fff;
        fill-rule: evenodd;
      }
    </style>
  </defs>
  <path d="M10.069,20.000 C4.521,20.000 -0.004,15.521 -0.004,9.991 C-0.004,4.461 4.504,-0.000 10.069,-0.000 C15.634,-0.000 20.125,4.479 20.125,9.991 C20.125,15.504 15.617,20.000 10.069,20.000 ZM10.069,1.395 C5.301,1.395 1.418,5.254 1.418,9.991 C1.418,14.729 5.301,18.587 10.069,18.587 C14.837,18.587 18.721,14.729 18.721,9.991 C18.721,5.254 14.837,1.395 10.069,1.395 ZM9.116,14.987 C8.977,15.125 8.803,15.194 8.613,15.194 C8.439,15.194 8.249,15.125 8.110,14.987 C7.833,14.711 7.833,14.263 8.110,13.988 L12.184,9.940 L8.110,5.891 C7.833,5.616 7.833,5.168 8.110,4.892 C8.387,4.617 8.838,4.617 9.116,4.892 L13.693,9.440 C13.831,9.578 13.901,9.750 13.901,9.940 C13.901,10.129 13.831,10.301 13.693,10.439 L9.116,14.987 Z" class="cls-1"/>
</svg>
