<svg xmlns="http://www.w3.org/2000/svg" xmlns:xlink="http://www.w3.org/1999/xlink" preserveAspectRatio="xMidYMid" width="20" height="20" viewBox="0 0 20 20">
  <defs>
    <style>
      .cls-1 {
        fill: #485368;
        fill-rule: evenodd;
      }
    </style>
  </defs>
  <path d="M19.400,9.683 C19.069,9.683 18.800,9.414 18.800,9.083 C18.800,6.977 17.980,4.998 16.491,3.509 C15.002,2.020 13.022,1.200 10.916,1.200 C10.585,1.200 10.317,0.931 10.317,0.600 C10.317,0.269 10.585,-0.000 10.916,-0.000 C13.343,-0.000 15.624,0.945 17.339,2.660 C19.055,4.376 20.000,6.657 20.000,9.083 C20.000,9.414 19.731,9.683 19.400,9.683 ZM10.917,6.085 L10.917,6.085 C11.729,6.085 12.462,6.389 13.036,6.963 C13.611,7.538 13.914,8.271 13.914,9.083 C13.914,9.414 13.646,9.683 13.315,9.683 L13.314,9.683 C12.983,9.683 12.715,9.414 12.715,9.083 C12.715,8.596 12.533,8.156 12.188,7.811 C11.839,7.462 11.411,7.285 10.917,7.285 C10.917,7.285 10.917,7.285 10.917,7.285 C10.586,7.285 10.317,7.016 10.317,6.685 C10.317,6.354 10.585,6.085 10.917,6.085 ZM10.917,3.043 C12.530,3.043 14.047,3.671 15.188,4.812 C16.329,5.953 16.957,7.470 16.957,9.083 C16.957,9.414 16.689,9.683 16.357,9.683 C16.026,9.683 15.757,9.414 15.757,9.083 C15.758,7.790 15.254,6.574 14.340,5.660 C13.425,4.746 12.210,4.242 10.917,4.242 C10.585,4.242 10.317,3.974 10.317,3.642 C10.317,3.311 10.585,3.043 10.917,3.043 ZM7.252,7.394 C7.018,7.628 6.711,7.745 6.404,7.745 C6.292,7.745 6.180,7.729 6.071,7.698 L5.686,8.082 C5.686,8.082 5.686,8.082 5.686,8.083 C5.413,8.356 5.833,10.056 7.888,12.111 C9.944,14.167 11.644,14.586 11.917,14.313 C11.917,14.313 11.917,14.313 11.918,14.313 L12.302,13.928 C12.185,13.522 12.286,13.066 12.606,12.747 L13.625,11.728 C14.093,11.260 14.854,11.260 15.321,11.728 L19.240,15.647 C19.708,16.115 19.708,16.876 19.240,17.343 L18.221,18.363 C17.995,18.589 17.693,18.714 17.373,18.714 C17.258,18.714 17.147,18.697 17.040,18.667 L16.826,18.880 C16.083,19.623 15.047,20.000 13.804,20.000 C13.046,20.000 12.212,19.860 11.319,19.577 C9.098,18.873 6.746,17.356 4.695,15.305 C2.643,13.254 1.126,10.901 0.422,8.680 C-0.296,6.412 -0.093,4.515 0.991,3.310 C1.007,3.289 1.333,2.960 1.333,2.960 C1.217,2.554 1.318,2.098 1.637,1.778 L2.656,0.759 C2.883,0.533 3.184,0.408 3.504,0.408 C3.825,0.408 4.126,0.533 4.353,0.759 L8.271,4.678 C8.739,5.146 8.739,5.907 8.271,6.375 L7.252,7.394 ZM17.373,17.514 C17.373,17.515 18.392,16.495 18.392,16.495 L14.473,12.576 L13.454,13.595 L17.373,17.514 ZM1.967,4.022 L1.967,4.022 C1.104,4.885 0.962,6.411 1.566,8.318 C2.213,10.359 3.625,12.539 5.543,14.457 C7.461,16.374 9.641,17.787 11.682,18.433 C13.589,19.038 15.114,18.895 15.977,18.032 C15.977,18.032 15.977,18.032 15.977,18.032 L16.086,17.924 L13.045,14.882 L12.766,15.161 C12.766,15.161 12.766,15.161 12.766,15.161 C12.475,15.452 12.092,15.582 11.651,15.582 C10.340,15.582 8.514,14.434 7.040,12.960 C5.070,10.990 3.682,8.392 4.837,7.235 C4.838,7.234 4.838,7.234 4.838,7.234 L5.117,6.955 L2.076,3.914 L1.967,4.022 ZM3.504,1.608 L2.485,2.627 L4.445,4.586 L6.390,6.531 L6.404,6.546 C6.405,6.546 6.405,6.546 6.405,6.546 L7.423,5.527 L3.504,1.608 Z" class="cls-1"/>
</svg>
